<?xml version="1.0" encoding="UTF-8"?>
<svg version="1.1" viewBox="0 0 539 157.6" xmlns="http://www.w3.org/2000/svg"><defs><filter id="a" color-interpolation-filters="sRGB"><feGaussianBlur stdDeviation="3.9432274"/></filter></defs><g transform="translate(-137.3 -240.9)"><g style="fill:#fff;filter:url(#a);opacity:.792" aria-label="mike"><path d="m195.6 350.3q0 1.872-1.872 2.304-0.72 0.144-2.016 0.144-1.152 0-3.024 0h-5.904q0.288-5.472 0.288-12.1t0-14.83v-17.28q0-8.496-2.16-11.81-2.016-3.456-7.488-3.456-4.032 0-7.2 1.872-3.024 1.728-5.328 4.176v46.66q0 1.872-0.288 3.024t-1.152 2.304q-0.72 0.576-1.44 0.864t-2.016 0.432q-1.152 0.144-3.024 0.144-1.728 0-4.608 0 0.144-5.472 0.144-12.1 0-6.768 0-14.98v-25.78q0-3.456-0.576-6.048-0.432-2.592-1.152-4.752 0.864-1.152 5.76-3.312 0.432-0.144 1.008-0.144 2.016 0 3.024 1.296 1.008 1.152 1.44 3.024 2.592-2.16 5.04-3.456 2.592-1.44 4.896-2.16 4.32-1.44 9.072-1.44 0.576 0 1.152 0 0.72 0 1.44 0.144 4.896 0.288 7.776 2.16 3.024 1.872 4.896 5.04 2.592-2.16 5.184-3.6 2.736-1.44 5.184-2.16 4.32-1.44 8.784-1.44 0.72 0 1.44 0t1.44 0.144q4.752 0.432 7.776 2.304t4.752 5.04q1.872 3.168 2.448 7.632 0.72 4.464 0.72 9.792v24.19q0 5.472 0 10.22t0.288 8.64q-1.296 1.008-3.6 1.296-2.16 0.432-8.208 0.432-0.432-0.864-0.72-1.872-0.288-1.152-0.288-2.736v-39.46q0-8.496-2.16-11.81-2.016-3.456-7.488-3.456-3.744 0-6.912 1.872-3.024 1.728-5.328 4.176v50.83z"/><path d="m257.6 284.4q0.72 1.584 0.864 3.6 0.288 2.016 0.288 6.624v48.96q0 4.896-1.728 7.632-0.72 1.152-2.88 1.296t-8.208 0.288q0-5.472 0-11.66 0.144-6.336 0.144-12.96v-25.49q0-5.04-0.144-8.496 0-3.456-0.144-6.336 1.152-2.304 4.176-2.88 3.168-0.576 7.632-0.576zm-12.24-24.48q0-8.064 7.632-8.064 4.32 0 5.472 2.016 1.296 1.872 1.152 5.76-0.144 3.744-1.584 6.192t-5.904 2.448q-3.744 0-5.328-2.016-1.44-2.016-1.44-6.336z"/><path d="m274.8 352.8q0-1.872 0-5.76 0.144-3.888 0.144-8.208 0.144-4.32 0.144-8.208 0-4.032 0-6.048v-52.7q0-3.744-0.144-6.912 0-3.312-0.144-6.192l-0.144-4.032q1.152-2.592 3.888-3.456t7.056-0.864q0.864 1.44 1.296 3.744 0.432 2.16 0.432 7.632v25.92q4.032-3.312 8.496-4.608 4.464-1.44 9.36-1.44 3.6 0 5.904 1.296t3.6 3.312q1.44 2.016 2.016 4.464t0.576 4.752q0 6.192-2.448 10.8-2.304 4.464-5.472 7.632t-6.48 5.04q-3.168 1.728-4.896 2.304 2.16 1.44 6.048 5.76t8.208 9.504q4.32 5.04 8.352 10.08t6.48 7.92q1.152 0.864 0.288 1.584-0.864 0.864-2.448 1.44-2.448 0.72-5.184 0.72-2.16 0-3.744-0.72-1.44-0.72-3.888-2.592-0.864-0.864-2.304-2.592t-3.312-4.032-3.888-4.608q-2.016-2.448-3.888-4.608-0.72-0.72-2.016-2.016-1.152-1.44-2.592-2.88-1.296-1.44-2.592-2.736-1.152-1.296-1.728-1.872-0.288-0.288-1.152-1.008-0.72-0.72-1.296-1.152v20.88q0 1.728-0.432 2.592-0.288 0.864-1.584 1.296-1.152 0.432-3.744 0.432-2.448 0.144-6.768 0.144zm12.53-36q3.312-1.44 6.336-3.456 3.024-2.16 5.184-4.608 2.304-2.448 3.6-5.184 1.44-2.88 1.44-6.048 0-2.448-1.152-4.032-1.152-1.728-3.6-1.728t-5.76 2.16q-3.168 2.016-6.048 6.048z"/><path d="m358.2 343.6q4.608 0 8.496-0.72 4.032-0.864 7.488-2.736 0.288 1.008 0.432 2.736 0.288 1.728 0.432 3.024-0.144 2.16-2.736 4.176t-5.616 2.736q-1.584 0.432-4.608 0.864-3.024 0.576-6.336 0.576-5.04 0-10.22-1.44-5.184-1.296-9.36-5.472-7.632-7.92-7.632-26.21 0-10.37 2.016-17.57 2.16-7.344 5.76-11.81 3.744-4.608 8.784-6.624 5.184-2.16 11.09-2.16 9.792 0 14.83 5.472t6.048 14.83q0.144 1.584 0.144 3.312 0.144 1.728 0.144 3.6 0 2.304-0.288 4.608-0.144 2.16-0.576 3.888-1.152 0.864-4.176 1.872t-5.904 1.44q-3.312 0.432-8.496 0.72-5.184 0.144-10.22 0.144-1.728 0-3.312 0-1.44 0-3.168-0.144 0 5.904 1.296 9.936t3.456 6.48q2.304 2.448 5.328 3.456 3.168 1.008 6.912 1.008zm-3.456-51.26q-0.864 0-1.296 0.144-4.32 0.72-7.92 5.76-3.456 5.04-4.032 15.55h5.472q4.176 0 8.208 0 4.032-0.144 6.048-0.432 1.008-0.144 1.728-0.288 0.864-0.144 1.584-0.576 0.72-1.872 0.72-4.752 0-0.864-0.144-1.584 0-0.864 0-1.584-0.576-6.048-3.024-9.072-2.448-3.168-7.344-3.168z"/></g><g style="fill:#fff;filter:url(#a);opacity:.792" aria-label="dilger"><path d="m440 338.7q-0.144 2.16 0.288 3.744 0.288 1.296 1.152 2.304t2.592 0.576q-0.144 1.584-0.144 3.168t0 2.16q-0.864 1.296-2.88 2.16-1.872 1.008-4.752 1.152-2.592 0.144-5.184-1.728-2.448-1.872-3.456-3.312-0.72 0.72-1.872 1.728-1.152 0.864-2.304 1.44-4.464 2.304-10.51 2.016-5.472-0.288-10.08-2.016-4.464-1.872-7.776-5.76t-5.184-10.08-1.872-15.41q0-9.936 2.592-17.14 2.592-7.344 6.912-12.24 4.032-4.464 8.928-6.48 5.04-2.16 10.22-2.16 3.744 0 6.624 0.72t4.608 1.872v-17.14q0-4.752-0.144-8.064 0-3.312-0.144-5.904 1.152-2.448 4.032-3.168 3.024-0.72 7.488-0.72 0.72 1.584 0.864 3.888 0.288 2.16 0.288 7.056v48.38q0 7.488-0.144 15.41-0.144 7.776-0.144 13.54zm-12.1-43.49q-3.168-2.736-9.216-2.736-3.168 0-6.336 1.44-3.024 1.44-5.472 4.608-2.304 3.168-3.888 8.352-1.44 5.184-1.44 12.53 0 6.912 1.152 11.66 1.152 4.608 3.168 7.488 2.016 2.736 4.752 4.032 2.88 1.152 6.192 1.152t6.048-1.008q2.88-1.152 4.464-3.024 0.144-0.288 0.288-0.864t0.144-1.152q0.144-1.296 0.144-2.88 0-1.728 0-4.032z"/><path d="m468.6 284.2q0.72 1.584 0.864 3.6 0.288 2.016 0.288 6.624v48.96q0 4.896-1.728 7.632-0.72 1.152-2.88 1.296t-8.208 0.288q0-5.472 0-11.66 0.144-6.336 0.144-12.96v-25.49q0-5.04-0.144-8.496 0-3.456-0.144-6.336 1.152-2.304 4.176-2.88 3.168-0.576 7.632-0.576zm-12.24-24.48q0-8.064 7.632-8.064 4.32 0 5.472 2.016 1.296 1.872 1.152 5.76-0.144 3.744-1.584 6.192t-5.904 2.448q-3.744 0-5.328-2.016-1.44-2.016-1.44-6.336z"/><path d="m498.5 338.7q-0.144 2.016 0.288 3.6 0.288 1.296 1.152 2.304t2.592 0.72q-0.144 1.584-0.144 3.168t0 2.16q-0.864 1.296-2.88 2.16-1.872 1.008-4.752 1.152-1.296 0-2.736-0.576-1.296-0.576-2.448-1.296-1.728-1.152-2.592-3.024-0.864-2.016-0.864-4.176v-74.45q0-5.328-0.144-9.072 0-3.888-0.144-7.2 1.152-2.448 4.176-3.024 3.024-0.72 7.488-0.72 0.72 2.16 0.864 5.04t0.144 8.352v74.88z"/><path d="m559.8 307.4q0 11.38-6.336 17.71-6.192 6.192-17.28 6.192-2.016 0-3.6-0.144-1.584-0.288-3.168-0.576-1.008 1.008-1.872 1.872-0.864 0.72-1.584 1.584-1.008 1.152-1.008 2.448t2.16 2.448q2.304 1.008 6.624 1.44 3.024 0.288 6.192 0.576 3.168 0.144 6.48 0.432 1.44 0.144 2.592 0.288 1.296 0 2.448 0.288 6.768 1.152 10.51 4.752 3.888 3.6 4.176 9.936 0 4.752-2.304 9.648-2.16 5.04-6.192 9.216-3.888 4.32-9.504 7.488t-12.24 4.608q-2.88 0.72-6.336 1.008-3.456 0.432-6.912 0.432-5.04 0-9.216-1.296-4.032-1.296-4.896-4.608-0.72-2.736 1.152-6.192 2.016-3.312 5.328-6.768t7.344-6.624 7.344-5.328q2.16 1.152 2.304 3.6 0.288 2.592-1.584 4.176t-3.744 3.312q-1.728 1.728-3.168 3.312-1.44 1.728-2.16 3.168-0.72 1.584-0.432 2.592 0.288 1.296 1.584 1.728 1.44 0.432 3.456 0.432 2.448 0 5.184-0.576 2.88-0.432 4.896-0.864 3.888-1.008 7.2-3.168 3.312-2.016 5.76-4.752 2.448-2.592 3.744-5.472 1.44-2.736 1.44-5.04 0-0.432-0.144-1.296 0-0.72-0.144-1.008-1.008-2.592-2.592-4.32-1.44-1.728-6.048-2.304-2.448-0.288-4.896-0.432t-5.04-0.288l-2.592-0.144q-4.896-0.432-7.92-1.152-1.728-0.432-3.024-0.864-4.752-1.584-7.344-4.032-2.448-2.592-2.592-5.76 0-1.152 1.584-3.024 2.016-2.016 4.32-4.176 2.448-2.304 4.32-4.032-4.608-2.88-7.056-7.92t-2.448-11.95q0-6.048 1.872-10.66 1.872-4.752 5.04-7.92 3.312-3.312 7.776-4.896 4.464-1.728 9.792-1.728 3.744 0 6.624 0.864 3.024 0.864 4.896 1.872 0.432 0.288 0.864 0.576 0.432 0.144 1.296-0.576 4.176-0.144 8.064-0.288 3.888-0.288 6.768-0.432 0.288 0.72 0.576 1.872 0.288 1.008 0.288 2.448 0 2.448-1.008 4.176-0.864 1.584-2.88 1.584-1.872 0-3.312 0-1.44-0.144-3.312-0.432 2.016 2.88 2.88 6.048 1.008 3.024 1.008 6.912zm-24.48-16.27q-5.04 0-8.064 4.032-2.88 3.888-2.16 12.1 0.72 7.2 3.744 11.38t9.072 4.176q5.904 0 8.208-4.608 2.448-4.608 1.728-12.24-0.72-7.056-3.888-10.94-3.024-3.888-8.64-3.888z"/><path d="m601.9 343.4q4.608 0 8.496-0.72 4.032-0.864 7.488-2.736 0.288 1.008 0.432 2.736 0.288 1.728 0.432 3.024-0.144 2.16-2.736 4.176t-5.616 2.736q-1.584 0.432-4.608 0.864-3.024 0.576-6.336 0.576-5.04 0-10.22-1.44-5.184-1.296-9.36-5.472-7.632-7.92-7.632-26.21 0-10.37 2.016-17.57 2.16-7.344 5.76-11.81 3.744-4.608 8.784-6.624 5.184-2.16 11.09-2.16 9.792 0 14.83 5.472t6.048 14.83q0.144 1.584 0.144 3.312 0.144 1.728 0.144 3.6 0 2.304-0.288 4.608-0.144 2.16-0.576 3.888-1.152 0.864-4.176 1.872t-5.904 1.44q-3.312 0.432-8.496 0.72-5.184 0.144-10.22 0.144-1.728 0-3.312 0-1.44 0-3.168-0.144 0 5.904 1.296 9.936t3.456 6.48q2.304 2.448 5.328 3.456 3.168 1.008 6.912 1.008zm-3.456-51.26q-0.864 0-1.296 0.144-4.32 0.72-7.92 5.76-3.456 5.04-4.032 15.55h5.472q4.176 0 8.208 0 4.032-0.144 6.048-0.432 1.008-0.144 1.728-0.288 0.864-0.144 1.584-0.576 0.72-1.872 0.72-4.752 0-0.864-0.144-1.584 0-0.864 0-1.584-0.576-6.048-3.024-9.072-2.448-3.168-7.344-3.168z"/><path d="m657.2 294.9q-7.056 0-11.38 4.608v45.94q0 1.872-0.288 3.312-0.144 1.296-1.008 2.448-0.72 0.432-1.584 0.72-0.72 0.288-2.016 0.432-1.152 0.144-3.024 0.144-1.872 0.144-4.752 0.144 0.144-5.904 0.144-12.82 0.144-6.912 0.144-15.41l0.144-24.34q0-3.456-0.576-6.048t-1.296-4.752q1.296-1.296 5.904-3.312 0.432-0.144 1.008-0.144 2.016 0 2.88 1.296 1.008 1.152 1.584 3.024 2.448-2.16 4.896-3.456 2.592-1.44 4.896-2.16 2.016-0.72 3.888-1.008 1.872-0.432 3.888-0.144 5.616 0.576 6.192 3.6 0 1.584-0.576 4.032-0.432 2.304-1.728 4.32-0.576 0.144-1.296 0.144t-1.728 0q-0.864-0.144-1.728-0.288-0.72-0.288-1.44-0.288-0.576 0-1.152 0z"/></g><g style="fill:#403c3e" aria-label="mike"><path d="m195.6 350.3q0 1.872-1.872 2.304-0.72 0.144-2.016 0.144-1.152 0-3.024 0h-5.904q0.288-5.472 0.288-12.1t0-14.83v-17.28q0-8.496-2.16-11.81-2.016-3.456-7.488-3.456-4.032 0-7.2 1.872-3.024 1.728-5.328 4.176v46.66q0 1.872-0.288 3.024t-1.152 2.304q-0.72 0.576-1.44 0.864t-2.016 0.432q-1.152 0.144-3.024 0.144-1.728 0-4.608 0 0.144-5.472 0.144-12.1 0-6.768 0-14.98v-25.78q0-3.456-0.576-6.048-0.432-2.592-1.152-4.752 0.864-1.152 5.76-3.312 0.432-0.144 1.008-0.144 2.016 0 3.024 1.296 1.008 1.152 1.44 3.024 2.592-2.16 5.04-3.456 2.592-1.44 4.896-2.16 4.32-1.44 9.072-1.44 0.576 0 1.152 0 0.72 0 1.44 0.144 4.896 0.288 7.776 2.16 3.024 1.872 4.896 5.04 2.592-2.16 5.184-3.6 2.736-1.44 5.184-2.16 4.32-1.44 8.784-1.44 0.72 0 1.44 0t1.44 0.144q4.752 0.432 7.776 2.304t4.752 5.04q1.872 3.168 2.448 7.632 0.72 4.464 0.72 9.792v24.19q0 5.472 0 10.22t0.288 8.64q-1.296 1.008-3.6 1.296-2.16 0.432-8.208 0.432-0.432-0.864-0.72-1.872-0.288-1.152-0.288-2.736v-39.46q0-8.496-2.16-11.81-2.016-3.456-7.488-3.456-3.744 0-6.912 1.872-3.024 1.728-5.328 4.176v50.83z"/><path d="m257.6 284.4q0.72 1.584 0.864 3.6 0.288 2.016 0.288 6.624v48.96q0 4.896-1.728 7.632-0.72 1.152-2.88 1.296t-8.208 0.288q0-5.472 0-11.66 0.144-6.336 0.144-12.96v-25.49q0-5.04-0.144-8.496 0-3.456-0.144-6.336 1.152-2.304 4.176-2.88 3.168-0.576 7.632-0.576zm-12.24-24.48q0-8.064 7.632-8.064 4.32 0 5.472 2.016 1.296 1.872 1.152 5.76-0.144 3.744-1.584 6.192t-5.904 2.448q-3.744 0-5.328-2.016-1.44-2.016-1.44-6.336z"/><path d="m274.8 352.8q0-1.872 0-5.76 0.144-3.888 0.144-8.208 0.144-4.32 0.144-8.208 0-4.032 0-6.048v-52.7q0-3.744-0.144-6.912 0-3.312-0.144-6.192l-0.144-4.032q1.152-2.592 3.888-3.456t7.056-0.864q0.864 1.44 1.296 3.744 0.432 2.16 0.432 7.632v25.92q4.032-3.312 8.496-4.608 4.464-1.44 9.36-1.44 3.6 0 5.904 1.296t3.6 3.312q1.44 2.016 2.016 4.464t0.576 4.752q0 6.192-2.448 10.8-2.304 4.464-5.472 7.632t-6.48 5.04q-3.168 1.728-4.896 2.304 2.16 1.44 6.048 5.76t8.208 9.504q4.32 5.04 8.352 10.08t6.48 7.92q1.152 0.864 0.288 1.584-0.864 0.864-2.448 1.44-2.448 0.72-5.184 0.72-2.16 0-3.744-0.72-1.44-0.72-3.888-2.592-0.864-0.864-2.304-2.592t-3.312-4.032-3.888-4.608q-2.016-2.448-3.888-4.608-0.72-0.72-2.016-2.016-1.152-1.44-2.592-2.88-1.296-1.44-2.592-2.736-1.152-1.296-1.728-1.872-0.288-0.288-1.152-1.008-0.72-0.72-1.296-1.152v20.88q0 1.728-0.432 2.592-0.288 0.864-1.584 1.296-1.152 0.432-3.744 0.432-2.448 0.144-6.768 0.144zm12.53-36q3.312-1.44 6.336-3.456 3.024-2.16 5.184-4.608 2.304-2.448 3.6-5.184 1.44-2.88 1.44-6.048 0-2.448-1.152-4.032-1.152-1.728-3.6-1.728t-5.76 2.16q-3.168 2.016-6.048 6.048z"/><path d="m358.2 343.6q4.608 0 8.496-0.72 4.032-0.864 7.488-2.736 0.288 1.008 0.432 2.736 0.288 1.728 0.432 3.024-0.144 2.16-2.736 4.176t-5.616 2.736q-1.584 0.432-4.608 0.864-3.024 0.576-6.336 0.576-5.04 0-10.22-1.44-5.184-1.296-9.36-5.472-7.632-7.92-7.632-26.21 0-10.37 2.016-17.57 2.16-7.344 5.76-11.81 3.744-4.608 8.784-6.624 5.184-2.16 11.09-2.16 9.792 0 14.83 5.472t6.048 14.83q0.144 1.584 0.144 3.312 0.144 1.728 0.144 3.6 0 2.304-0.288 4.608-0.144 2.16-0.576 3.888-1.152 0.864-4.176 1.872t-5.904 1.44q-3.312 0.432-8.496 0.72-5.184 0.144-10.22 0.144-1.728 0-3.312 0-1.44 0-3.168-0.144 0 5.904 1.296 9.936t3.456 6.48q2.304 2.448 5.328 3.456 3.168 1.008 6.912 1.008zm-3.456-51.26q-0.864 0-1.296 0.144-4.32 0.72-7.92 5.76-3.456 5.04-4.032 15.55h5.472q4.176 0 8.208 0 4.032-0.144 6.048-0.432 1.008-0.144 1.728-0.288 0.864-0.144 1.584-0.576 0.72-1.872 0.72-4.752 0-0.864-0.144-1.584 0-0.864 0-1.584-0.576-6.048-3.024-9.072-2.448-3.168-7.344-3.168z"/></g><g style="fill-opacity:.9412;fill:#33619f" aria-label="dilger"><path d="m440 338.7q-0.144 2.16 0.288 3.744 0.288 1.296 1.152 2.304t2.592 0.576q-0.144 1.584-0.144 3.168t0 2.16q-0.864 1.296-2.88 2.16-1.872 1.008-4.752 1.152-2.592 0.144-5.184-1.728-2.448-1.872-3.456-3.312-0.72 0.72-1.872 1.728-1.152 0.864-2.304 1.44-4.464 2.304-10.51 2.016-5.472-0.288-10.08-2.016-4.464-1.872-7.776-5.76t-5.184-10.08-1.872-15.41q0-9.936 2.592-17.14 2.592-7.344 6.912-12.24 4.032-4.464 8.928-6.48 5.04-2.16 10.22-2.16 3.744 0 6.624 0.72t4.608 1.872v-17.14q0-4.752-0.144-8.064 0-3.312-0.144-5.904 1.152-2.448 4.032-3.168 3.024-0.72 7.488-0.72 0.72 1.584 0.864 3.888 0.288 2.16 0.288 7.056v48.38q0 7.488-0.144 15.41-0.144 7.776-0.144 13.54zm-12.1-43.49q-3.168-2.736-9.216-2.736-3.168 0-6.336 1.44-3.024 1.44-5.472 4.608-2.304 3.168-3.888 8.352-1.44 5.184-1.44 12.53 0 6.912 1.152 11.66 1.152 4.608 3.168 7.488 2.016 2.736 4.752 4.032 2.88 1.152 6.192 1.152t6.048-1.008q2.88-1.152 4.464-3.024 0.144-0.288 0.288-0.864t0.144-1.152q0.144-1.296 0.144-2.88 0-1.728 0-4.032z"/><path d="m468.6 284.2q0.72 1.584 0.864 3.6 0.288 2.016 0.288 6.624v48.96q0 4.896-1.728 7.632-0.72 1.152-2.88 1.296t-8.208 0.288q0-5.472 0-11.66 0.144-6.336 0.144-12.96v-25.49q0-5.04-0.144-8.496 0-3.456-0.144-6.336 1.152-2.304 4.176-2.88 3.168-0.576 7.632-0.576zm-12.24-24.48q0-8.064 7.632-8.064 4.32 0 5.472 2.016 1.296 1.872 1.152 5.76-0.144 3.744-1.584 6.192t-5.904 2.448q-3.744 0-5.328-2.016-1.44-2.016-1.44-6.336z"/><path d="m498.5 338.7q-0.144 2.016 0.288 3.6 0.288 1.296 1.152 2.304t2.592 0.72q-0.144 1.584-0.144 3.168t0 2.16q-0.864 1.296-2.88 2.16-1.872 1.008-4.752 1.152-1.296 0-2.736-0.576-1.296-0.576-2.448-1.296-1.728-1.152-2.592-3.024-0.864-2.016-0.864-4.176v-74.45q0-5.328-0.144-9.072 0-3.888-0.144-7.2 1.152-2.448 4.176-3.024 3.024-0.72 7.488-0.72 0.72 2.16 0.864 5.04t0.144 8.352v74.88z"/><path d="m559.8 307.4q0 11.38-6.336 17.71-6.192 6.192-17.28 6.192-2.016 0-3.6-0.144-1.584-0.288-3.168-0.576-1.008 1.008-1.872 1.872-0.864 0.72-1.584 1.584-1.008 1.152-1.008 2.448t2.16 2.448q2.304 1.008 6.624 1.44 3.024 0.288 6.192 0.576 3.168 0.144 6.48 0.432 1.44 0.144 2.592 0.288 1.296 0 2.448 0.288 6.768 1.152 10.51 4.752 3.888 3.6 4.176 9.936 0 4.752-2.304 9.648-2.16 5.04-6.192 9.216-3.888 4.32-9.504 7.488t-12.24 4.608q-2.88 0.72-6.336 1.008-3.456 0.432-6.912 0.432-5.04 0-9.216-1.296-4.032-1.296-4.896-4.608-0.72-2.736 1.152-6.192 2.016-3.312 5.328-6.768t7.344-6.624 7.344-5.328q2.16 1.152 2.304 3.6 0.288 2.592-1.584 4.176t-3.744 3.312q-1.728 1.728-3.168 3.312-1.44 1.728-2.16 3.168-0.72 1.584-0.432 2.592 0.288 1.296 1.584 1.728 1.44 0.432 3.456 0.432 2.448 0 5.184-0.576 2.88-0.432 4.896-0.864 3.888-1.008 7.2-3.168 3.312-2.016 5.76-4.752 2.448-2.592 3.744-5.472 1.44-2.736 1.44-5.04 0-0.432-0.144-1.296 0-0.72-0.144-1.008-1.008-2.592-2.592-4.32-1.44-1.728-6.048-2.304-2.448-0.288-4.896-0.432t-5.04-0.288l-2.592-0.144q-4.896-0.432-7.92-1.152-1.728-0.432-3.024-0.864-4.752-1.584-7.344-4.032-2.448-2.592-2.592-5.76 0-1.152 1.584-3.024 2.016-2.016 4.32-4.176 2.448-2.304 4.32-4.032-4.608-2.88-7.056-7.92t-2.448-11.95q0-6.048 1.872-10.66 1.872-4.752 5.04-7.92 3.312-3.312 7.776-4.896 4.464-1.728 9.792-1.728 3.744 0 6.624 0.864 3.024 0.864 4.896 1.872 0.432 0.288 0.864 0.576 0.432 0.144 1.296-0.576 4.176-0.144 8.064-0.288 3.888-0.288 6.768-0.432 0.288 0.72 0.576 1.872 0.288 1.008 0.288 2.448 0 2.448-1.008 4.176-0.864 1.584-2.88 1.584-1.872 0-3.312 0-1.44-0.144-3.312-0.432 2.016 2.88 2.88 6.048 1.008 3.024 1.008 6.912zm-24.48-16.27q-5.04 0-8.064 4.032-2.88 3.888-2.16 12.1 0.72 7.2 3.744 11.38t9.072 4.176q5.904 0 8.208-4.608 2.448-4.608 1.728-12.24-0.72-7.056-3.888-10.94-3.024-3.888-8.64-3.888z"/><path d="m601.9 343.4q4.608 0 8.496-0.72 4.032-0.864 7.488-2.736 0.288 1.008 0.432 2.736 0.288 1.728 0.432 3.024-0.144 2.16-2.736 4.176t-5.616 2.736q-1.584 0.432-4.608 0.864-3.024 0.576-6.336 0.576-5.04 0-10.22-1.44-5.184-1.296-9.36-5.472-7.632-7.92-7.632-26.21 0-10.37 2.016-17.57 2.16-7.344 5.76-11.81 3.744-4.608 8.784-6.624 5.184-2.16 11.09-2.16 9.792 0 14.83 5.472t6.048 14.83q0.144 1.584 0.144 3.312 0.144 1.728 0.144 3.6 0 2.304-0.288 4.608-0.144 2.16-0.576 3.888-1.152 0.864-4.176 1.872t-5.904 1.44q-3.312 0.432-8.496 0.72-5.184 0.144-10.22 0.144-1.728 0-3.312 0-1.44 0-3.168-0.144 0 5.904 1.296 9.936t3.456 6.48q2.304 2.448 5.328 3.456 3.168 1.008 6.912 1.008zm-3.456-51.26q-0.864 0-1.296 0.144-4.32 0.72-7.92 5.76-3.456 5.04-4.032 15.55h5.472q4.176 0 8.208 0 4.032-0.144 6.048-0.432 1.008-0.144 1.728-0.288 0.864-0.144 1.584-0.576 0.72-1.872 0.72-4.752 0-0.864-0.144-1.584 0-0.864 0-1.584-0.576-6.048-3.024-9.072-2.448-3.168-7.344-3.168z"/><path d="m657.2 294.9q-7.056 0-11.38 4.608v45.94q0 1.872-0.288 3.312-0.144 1.296-1.008 2.448-0.72 0.432-1.584 0.72-0.72 0.288-2.016 0.432-1.152 0.144-3.024 0.144-1.872 0.144-4.752 0.144 0.144-5.904 0.144-12.82 0.144-6.912 0.144-15.41l0.144-24.34q0-3.456-0.576-6.048t-1.296-4.752q1.296-1.296 5.904-3.312 0.432-0.144 1.008-0.144 2.016 0 2.88 1.296 1.008 1.152 1.584 3.024 2.448-2.16 4.896-3.456 2.592-1.44 4.896-2.16 2.016-0.72 3.888-1.008 1.872-0.432 3.888-0.144 5.616 0.576 6.192 3.6 0 1.584-0.576 4.032-0.432 2.304-1.728 4.32-0.576 0.144-1.296 0.144t-1.728 0q-0.864-0.144-1.728-0.288-0.72-0.288-1.44-0.288-0.576 0-1.152 0z"/></g><g transform="scale(1.048 .9541)" style="fill:#c3c65d" aria-label="broadcaster &amp; naturalist "><path d="m145.2 408.4h-2.564v-27.44h2.752v9.79q0.8798-1.348 1.984-2.003 1.123-0.6739 2.49-0.6739 1.909 0 3.463 1.142 1.572 1.142 2.508 3.463 0.9359 2.321 0.9359 5.634 0 5.054-2.115 7.805-2.115 2.733-4.942 2.733-1.423 0-2.564-0.73-1.123-0.7487-1.947-2.209zm-0.0374-10.09q0 3.088 0.5616 4.623 0.5615 1.535 1.591 2.34t2.284 0.8049q1.703 0 3.014-1.909 1.329-1.928 1.329-5.746 0-3.912-1.273-5.746t-3.126-1.834q-1.703 0-3.051 1.928-1.329 1.909-1.329 5.541z"/><path d="m160.1 408.4v-19.88h2.49v3.014q0.9546-2.096 1.741-2.77 0.8049-0.6926 1.797-0.6926 1.385 0 2.826 1.086l-0.9359 3.126q-1.03-0.73-2.003-0.73-0.8798 0-1.61 0.6177-0.73 0.6177-1.03 1.722-0.5241 1.928-0.5241 4.099v10.41z"/><path d="m169.6 398.5q0-5.148 2.153-7.768 2.171-2.621 5.484-2.621 3.257 0 5.447 2.621t2.19 7.562q0 5.353-2.153 7.974t-5.484 2.621q-3.276 0-5.466-2.621-2.171-2.639-2.171-7.768zm2.826 0q0 3.856 1.404 5.746 1.404 1.872 3.482 1.872 1.947 0 3.332-1.891 1.404-1.909 1.404-5.728 0-3.837-1.404-5.709-1.404-1.891-3.482-1.891-1.965 0-3.351 1.891-1.385 1.891-1.385 5.709z"/><path d="m198.8 406q-1.385 1.441-2.883 2.171-1.497 0.73-3.107 0.73-2.546 0-4.062-1.535t-1.516-4.137q0-1.722 0.7113-3.051t1.947-2.078q1.235-0.7487 3.744-1.104 3.369-0.4867 4.942-1.161l0.0187-0.861q0-2.04-0.73-2.864-1.03-1.198-3.163-1.198-1.928 0-2.883 0.8049-0.9546 0.7862-1.404 2.976l-2.714-0.4492q0.5803-3.201 2.34-4.661 1.778-1.46 5.073-1.46 2.564 0 4.024 0.9734 1.46 0.9546 1.834 2.377 0.3931 1.423 0.3931 4.155v4.492q0 4.717 0.1685 5.952 0.1872 1.217 0.7113 2.377h-2.883q-0.4305-1.03-0.5616-2.452zm-0.2246-7.525q-1.516 0.7487-4.511 1.273-1.741 0.2995-2.433 0.6926-0.6926 0.3744-1.086 1.086-0.3744 0.6926-0.3744 1.61 0 1.423 0.8798 2.284 0.8798 0.8423 2.433 0.8423 1.479 0 2.677-0.7674 1.217-0.7674 1.816-2.04 0.599-1.292 0.599-3.744z"/><path d="m216.2 408.4v-2.508q-0.7487 1.441-1.928 2.209-1.179 0.7487-2.546 0.7487-2.883 0-4.998-2.714-2.096-2.733-2.096-7.674 0-3.388 0.9359-5.746t2.49-3.5q1.572-1.142 3.482-1.142 1.366 0 2.527 0.73 1.179 0.7113 1.947 2.003v-9.846h2.77v27.44zm-8.741-9.921q0 3.856 1.329 5.728 1.348 1.872 3.126 1.872 1.76 0 3.051-1.797 1.292-1.797 1.292-5.428 0-4.174-1.292-6.083-1.292-1.928-3.257-1.928-1.741 0-2.995 1.853-1.254 1.834-1.254 5.784z"/><path d="m233.9 401.2 2.714 0.4305q-0.468 3.556-2.358 5.428-1.872 1.872-4.511 1.872-3.201 0-5.279-2.621-2.059-2.639-2.059-7.787 0-5.185 2.078-7.768 2.096-2.602 5.372-2.602 2.527 0 4.249 1.572 1.741 1.572 2.227 4.717l-2.677 0.5054q-0.3931-2.022-1.366-3.014-0.9733-1.011-2.34-1.011-2.04 0-3.388 1.816-1.329 1.797-1.329 5.728 0 4.062 1.273 5.878 1.292 1.816 3.294 1.816 1.572 0 2.677-1.198 1.123-1.217 1.423-3.762z"/><path d="m249.5 406q-1.385 1.441-2.883 2.171-1.497 0.73-3.107 0.73-2.546 0-4.062-1.535t-1.516-4.137q0-1.722 0.7113-3.051t1.947-2.078q1.235-0.7487 3.744-1.104 3.369-0.4867 4.942-1.161l0.0187-0.861q0-2.04-0.73-2.864-1.03-1.198-3.163-1.198-1.928 0-2.883 0.8049-0.9546 0.7862-1.404 2.976l-2.714-0.4492q0.5803-3.201 2.34-4.661 1.778-1.46 5.073-1.46 2.564 0 4.024 0.9734 1.46 0.9546 1.834 2.377 0.3931 1.423 0.3931 4.155v4.492q0 4.717 0.1685 5.952 0.1872 1.217 0.7113 2.377h-2.883q-0.4305-1.03-0.5616-2.452zm-0.2246-7.525q-1.516 0.7487-4.511 1.273-1.741 0.2995-2.433 0.6926-0.6926 0.3744-1.086 1.086-0.3744 0.6926-0.3744 1.61 0 1.423 0.8798 2.284 0.8798 0.8423 2.433 0.8423 1.479 0 2.677-0.7674 1.217-0.7674 1.816-2.04 0.599-1.292 0.599-3.744z"/><path d="m255.4 402.5 2.733-0.5241q0.2433 2.096 1.329 3.126 1.086 1.011 2.883 1.011t2.77-0.8798q0.9921-0.8985 0.9921-2.265 0-1.179-0.8423-1.834-0.5803-0.4492-2.808-1.123-3.22-0.9921-4.305-1.685-1.086-0.6926-1.685-1.853-0.599-1.161-0.599-2.639 0-2.546 1.628-4.137t4.511-1.591q1.816 0 3.182 0.6551 1.385 0.6551 2.115 1.76 0.73 1.104 1.011 3.163l-2.695 0.4492q-0.3744-3.257-3.538-3.257-1.797 0-2.677 0.73-0.8798 0.7113-0.8798 1.834 0 1.104 0.8423 1.741 0.5054 0.3744 2.995 1.198 3.425 1.104 4.436 1.76 1.011 0.6364 1.572 1.76 0.5615 1.104 0.5615 2.639 0 2.845-1.816 4.605-1.797 1.76-4.923 1.76-5.859 0-6.795-6.402z"/><path d="m278.3 405.4 0.3744 2.976q-1.142 0.2995-2.059 0.2995-1.441 0-2.321-0.5615-0.8798-0.5803-1.217-1.572-0.3182-0.9921-0.3182-3.95v-11.44h-2.022v-2.621h2.022v-4.923l2.752-2.022v6.944h2.789v2.621h-2.789v11.62q0 1.61 0.2433 2.078 0.3556 0.6738 1.329 0.6738 0.468 0 1.217-0.131z"/><path d="m292.1 402 2.845 0.4305q-0.7113 3.182-2.583 4.811-1.853 1.61-4.605 1.61-3.463 0-5.615-2.621-2.134-2.639-2.134-7.6 0-5.148 2.153-7.843 2.171-2.714 5.484-2.714 3.163 0 5.279 2.658 2.115 2.658 2.115 7.693l-0.0187 0.8985h-12.17q0.1685 3.351 1.554 5.054 1.385 1.703 3.369 1.703 3.107 0 4.324-4.081zm-9.078-5.447h9.097q-0.1872-2.583-1.104-3.856-1.329-1.853-3.388-1.853-1.853 0-3.163 1.554-1.31 1.535-1.441 4.155z"/><path d="m298.4 408.4v-19.88h2.49v3.014q0.9546-2.096 1.741-2.77 0.8049-0.6926 1.797-0.6926 1.385 0 2.826 1.086l-0.9359 3.126q-1.03-0.73-2.003-0.73-0.8798 0-1.61 0.6177-0.73 0.6177-1.03 1.722-0.5241 1.928-0.5241 4.099v10.41z"/><path d="m330.6 405.2q-2.733 3.706-6.439 3.706-3.351 0-5.26-2.508-1.891-2.508-1.891-5.541 0-5.073 5.353-8.18-1.479-2.078-2.003-3.407-0.5241-1.348-0.5241-2.621 0-2.602 1.628-4.361 1.647-1.76 3.95-1.76 2.209 0 3.725 1.666 1.516 1.647 1.516 4.193 0 3.912-4.249 6.682l4.043 6.271q0.6551-1.61 1.067-3.819l2.864 0.7487q-0.73 3.556-1.984 5.915 1.516 2.471 3.5 4.212l-1.853 2.677q-1.666-1.329-3.444-3.875zm-5.615-14.3q1.722-1.254 2.284-2.209 0.5616-0.9546 0.5616-2.209 0-1.46-0.7487-2.321t-1.797-0.861q-1.067 0-1.853 0.8423-0.7674 0.8423-0.7674 2.19 0 1.292 1.086 2.826zm3.875 11.64-5.054-7.656q-2.134 1.554-2.976 2.939-0.8423 1.366-0.8423 2.826 0 1.872 1.161 3.575t3.032 1.703q1.198 0 2.527-0.9172t2.153-2.471z"/><path d="m347.4 408.4v-19.88h2.49v2.826q0.8985-1.647 2.19-2.452 1.31-0.8236 2.995-0.8236 1.31 0 2.415 0.5241 1.123 0.5054 1.797 1.348 0.6926 0.8236 1.03 2.153 0.3369 1.329 0.3369 4.081v12.22h-2.77v-12.09q0-2.19-0.3744-3.201t-1.179-1.554q-0.7862-0.5615-1.834-0.5615-1.984 0-3.163 1.479t-1.179 5.073v10.86z"/><path d="m375.5 406q-1.385 1.441-2.883 2.171t-3.107 0.73q-2.546 0-4.062-1.535t-1.516-4.137q0-1.722 0.7113-3.051t1.947-2.078q1.235-0.7487 3.744-1.104 3.369-0.4867 4.942-1.161l0.0187-0.861q0-2.04-0.73-2.864-1.03-1.198-3.163-1.198-1.928 0-2.883 0.8049-0.9546 0.7862-1.404 2.976l-2.714-0.4492q0.5803-3.201 2.34-4.661 1.778-1.46 5.073-1.46 2.564 0 4.024 0.9734 1.46 0.9546 1.834 2.377 0.3931 1.423 0.3931 4.155v4.492q0 4.717 0.1685 5.952 0.1872 1.217 0.7113 2.377h-2.883q-0.4305-1.03-0.5616-2.452zm-0.2246-7.525q-1.516 0.7487-4.511 1.273-1.741 0.2995-2.433 0.6926-0.6926 0.3744-1.086 1.086-0.3744 0.6926-0.3744 1.61 0 1.423 0.8798 2.284 0.8798 0.8423 2.433 0.8423 1.479 0 2.677-0.7674 1.217-0.7674 1.816-2.04 0.599-1.292 0.599-3.744z"/><path d="m388.6 405.4 0.3744 2.976q-1.142 0.2995-2.059 0.2995-1.441 0-2.321-0.5615-0.8798-0.5803-1.217-1.572-0.3182-0.9921-0.3182-3.95v-11.44h-2.022v-2.621h2.022v-4.923l2.752-2.022v6.944h2.789v2.621h-2.789v11.62q0 1.61 0.2433 2.078 0.3556 0.6738 1.329 0.6738 0.468 0 1.217-0.131z"/><path d="m401.9 408.4v-2.92q-0.9546 1.685-2.246 2.527-1.292 0.8423-2.92 0.8423-1.928 0-3.294-1.03-1.366-1.048-1.834-2.639-0.4492-1.591-0.4492-4.343v-12.32h2.752v11.03q0 3.07 0.2995 4.118 0.3182 1.03 1.142 1.666 0.8423 0.6177 1.909 0.6177 1.984 0 3.257-1.628 1.086-1.404 1.086-5.148v-10.65h2.77v19.88z"/><path d="m408.7 408.4v-19.88h2.49v3.014q0.9546-2.096 1.741-2.77 0.8049-0.6926 1.797-0.6926 1.385 0 2.826 1.086l-0.9359 3.126q-1.03-0.73-2.003-0.73-0.8798 0-1.61 0.6177-0.73 0.6177-1.03 1.722-0.5241 1.928-0.5241 4.099v10.41z"/><path d="m429.8 406q-1.385 1.441-2.883 2.171-1.497 0.73-3.107 0.73-2.546 0-4.062-1.535t-1.516-4.137q0-1.722 0.7113-3.051t1.947-2.078q1.235-0.7487 3.744-1.104 3.369-0.4867 4.942-1.161l0.0187-0.861q0-2.04-0.73-2.864-1.03-1.198-3.163-1.198-1.928 0-2.883 0.8049-0.9546 0.7862-1.404 2.976l-2.714-0.4492q0.5803-3.201 2.34-4.661 1.778-1.46 5.073-1.46 2.564 0 4.024 0.9734 1.46 0.9546 1.834 2.377 0.3931 1.423 0.3931 4.155v4.492q0 4.717 0.1685 5.952 0.1872 1.217 0.7113 2.377h-2.883q-0.4305-1.03-0.5616-2.452zm-0.2246-7.525q-1.516 0.7487-4.511 1.273-1.741 0.2995-2.433 0.6926-0.6926 0.3744-1.086 1.086-0.3744 0.6926-0.3744 1.61 0 1.423 0.8798 2.284 0.8798 0.8423 2.433 0.8423 1.479 0 2.677-0.7674 1.217-0.7674 1.816-2.04 0.599-1.292 0.599-3.744z"/><path d="m436.6 408.4v-27.44h2.752v27.44z"/><path d="m443.7 384.9v-3.875h2.752v3.875zm0 23.57v-19.88h2.752v19.88z"/><path d="m449.6 402.5 2.733-0.5241q0.2433 2.096 1.329 3.126 1.086 1.011 2.883 1.011t2.77-0.8798q0.9921-0.8985 0.9921-2.265 0-1.179-0.8423-1.834-0.5803-0.4492-2.808-1.123-3.22-0.9921-4.305-1.685-1.086-0.6926-1.685-1.853t-0.599-2.639q0-2.546 1.628-4.137t4.511-1.591q1.816 0 3.182 0.6551 1.385 0.6551 2.115 1.76 0.73 1.104 1.011 3.163l-2.695 0.4492q-0.3744-3.257-3.538-3.257-1.797 0-2.677 0.73-0.8798 0.7113-0.8798 1.834 0 1.104 0.8423 1.741 0.5054 0.3744 2.995 1.198 3.425 1.104 4.436 1.76 1.011 0.6364 1.572 1.76 0.5616 1.104 0.5616 2.639 0 2.845-1.816 4.605-1.797 1.76-4.923 1.76-5.859 0-6.795-6.402z"/><path d="m472.5 405.4 0.3744 2.976q-1.142 0.2995-2.059 0.2995-1.441 0-2.321-0.5615-0.8798-0.5803-1.217-1.572-0.3182-0.9921-0.3182-3.95v-11.44h-2.022v-2.621h2.022v-4.923l2.752-2.022v6.944h2.789v2.621h-2.789v11.62q0 1.61 0.2433 2.078 0.3556 0.6738 1.329 0.6738 0.468 0 1.217-0.131z"/></g></g></svg>
