<?xml version="1.0" encoding="UTF-8"?>
<svg version="1.1" viewBox="0 0 539 157.6" xmlns="http://www.w3.org/2000/svg"><defs><filter id="a" color-interpolation-filters="sRGB"><feGaussianBlur stdDeviation="3.9432274"/></filter></defs><g transform="translate(-137.3 -240.9)"><g style="font-family:Qlassik Bold;font-size:144px;font-weight:bold;line-height:125%"><g style="fill:#fff;filter:url(#a);opacity:.792" aria-label="mike"><path d="m195.6 350.3q0 1.872-1.872 2.304-0.72 0.144-2.016 0.144-1.152 0-3.024 0h-5.904q0.288-5.472 0.288-12.1t0-14.83v-17.28q0-8.496-2.16-11.81-2.016-3.456-7.488-3.456-4.032 0-7.2 1.872-3.024 1.728-5.328 4.176v46.66q0 1.872-0.288 3.024t-1.152 2.304q-0.72 0.576-1.44 0.864t-2.016 0.432q-1.152 0.144-3.024 0.144-1.728 0-4.608 0 0.144-5.472 0.144-12.1 0-6.768 0-14.98v-25.78q0-3.456-0.576-6.048-0.432-2.592-1.152-4.752 0.864-1.152 5.76-3.312 0.432-0.144 1.008-0.144 2.016 0 3.024 1.296 1.008 1.152 1.44 3.024 2.592-2.16 5.04-3.456 2.592-1.44 4.896-2.16 4.32-1.44 9.072-1.44 0.576 0 1.152 0 0.72 0 1.44 0.144 4.896 0.288 7.776 2.16 3.024 1.872 4.896 5.04 2.592-2.16 5.184-3.6 2.736-1.44 5.184-2.16 4.32-1.44 8.784-1.44 0.72 0 1.44 0t1.44 0.144q4.752 0.432 7.776 2.304t4.752 5.04q1.872 3.168 2.448 7.632 0.72 4.464 0.72 9.792v24.19q0 5.472 0 10.22t0.288 8.64q-1.296 1.008-3.6 1.296-2.16 0.432-8.208 0.432-0.432-0.864-0.72-1.872-0.288-1.152-0.288-2.736v-39.46q0-8.496-2.16-11.81-2.016-3.456-7.488-3.456-3.744 0-6.912 1.872-3.024 1.728-5.328 4.176v50.83z"/><path d="m257.6 284.4q0.72 1.584 0.864 3.6 0.288 2.016 0.288 6.624v48.96q0 4.896-1.728 7.632-0.72 1.152-2.88 1.296t-8.208 0.288q0-5.472 0-11.66 0.144-6.336 0.144-12.96v-25.49q0-5.04-0.144-8.496 0-3.456-0.144-6.336 1.152-2.304 4.176-2.88 3.168-0.576 7.632-0.576zm-12.24-24.48q0-8.064 7.632-8.064 4.32 0 5.472 2.016 1.296 1.872 1.152 5.76-0.144 3.744-1.584 6.192t-5.904 2.448q-3.744 0-5.328-2.016-1.44-2.016-1.44-6.336z"/><path d="m274.8 352.8q0-1.872 0-5.76 0.144-3.888 0.144-8.208 0.144-4.32 0.144-8.208 0-4.032 0-6.048v-52.7q0-3.744-0.144-6.912 0-3.312-0.144-6.192l-0.144-4.032q1.152-2.592 3.888-3.456t7.056-0.864q0.864 1.44 1.296 3.744 0.432 2.16 0.432 7.632v25.92q4.032-3.312 8.496-4.608 4.464-1.44 9.36-1.44 3.6 0 5.904 1.296t3.6 3.312q1.44 2.016 2.016 4.464t0.576 4.752q0 6.192-2.448 10.8-2.304 4.464-5.472 7.632t-6.48 5.04q-3.168 1.728-4.896 2.304 2.16 1.44 6.048 5.76t8.208 9.504q4.32 5.04 8.352 10.08t6.48 7.92q1.152 0.864 0.288 1.584-0.864 0.864-2.448 1.44-2.448 0.72-5.184 0.72-2.16 0-3.744-0.72-1.44-0.72-3.888-2.592-0.864-0.864-2.304-2.592t-3.312-4.032-3.888-4.608q-2.016-2.448-3.888-4.608-0.72-0.72-2.016-2.016-1.152-1.44-2.592-2.88-1.296-1.44-2.592-2.736-1.152-1.296-1.728-1.872-0.288-0.288-1.152-1.008-0.72-0.72-1.296-1.152v20.88q0 1.728-0.432 2.592-0.288 0.864-1.584 1.296-1.152 0.432-3.744 0.432-2.448 0.144-6.768 0.144zm12.53-36q3.312-1.44 6.336-3.456 3.024-2.16 5.184-4.608 2.304-2.448 3.6-5.184 1.44-2.88 1.44-6.048 0-2.448-1.152-4.032-1.152-1.728-3.6-1.728t-5.76 2.16q-3.168 2.016-6.048 6.048z"/><path d="m358.2 343.6q4.608 0 8.496-0.72 4.032-0.864 7.488-2.736 0.288 1.008 0.432 2.736 0.288 1.728 0.432 3.024-0.144 2.16-2.736 4.176t-5.616 2.736q-1.584 0.432-4.608 0.864-3.024 0.576-6.336 0.576-5.04 0-10.22-1.44-5.184-1.296-9.36-5.472-7.632-7.92-7.632-26.21 0-10.37 2.016-17.57 2.16-7.344 5.76-11.81 3.744-4.608 8.784-6.624 5.184-2.16 11.09-2.16 9.792 0 14.83 5.472t6.048 14.83q0.144 1.584 0.144 3.312 0.144 1.728 0.144 3.6 0 2.304-0.288 4.608-0.144 2.16-0.576 3.888-1.152 0.864-4.176 1.872t-5.904 1.44q-3.312 0.432-8.496 0.72-5.184 0.144-10.22 0.144-1.728 0-3.312 0-1.44 0-3.168-0.144 0 5.904 1.296 9.936t3.456 6.48q2.304 2.448 5.328 3.456 3.168 1.008 6.912 1.008zm-3.456-51.26q-0.864 0-1.296 0.144-4.32 0.72-7.92 5.76-3.456 5.04-4.032 15.55h5.472q4.176 0 8.208 0 4.032-0.144 6.048-0.432 1.008-0.144 1.728-0.288 0.864-0.144 1.584-0.576 0.72-1.872 0.72-4.752 0-0.864-0.144-1.584 0-0.864 0-1.584-0.576-6.048-3.024-9.072-2.448-3.168-7.344-3.168z"/></g><g style="fill:#fff;filter:url(#a);opacity:.792" aria-label="dilger"><path d="m440 338.7q-0.144 2.16 0.288 3.744 0.288 1.296 1.152 2.304t2.592 0.576q-0.144 1.584-0.144 3.168t0 2.16q-0.864 1.296-2.88 2.16-1.872 1.008-4.752 1.152-2.592 0.144-5.184-1.728-2.448-1.872-3.456-3.312-0.72 0.72-1.872 1.728-1.152 0.864-2.304 1.44-4.464 2.304-10.51 2.016-5.472-0.288-10.08-2.016-4.464-1.872-7.776-5.76t-5.184-10.08-1.872-15.41q0-9.936 2.592-17.14 2.592-7.344 6.912-12.24 4.032-4.464 8.928-6.48 5.04-2.16 10.22-2.16 3.744 0 6.624 0.72t4.608 1.872v-17.14q0-4.752-0.144-8.064 0-3.312-0.144-5.904 1.152-2.448 4.032-3.168 3.024-0.72 7.488-0.72 0.72 1.584 0.864 3.888 0.288 2.16 0.288 7.056v48.38q0 7.488-0.144 15.41-0.144 7.776-0.144 13.54zm-12.1-43.49q-3.168-2.736-9.216-2.736-3.168 0-6.336 1.44-3.024 1.44-5.472 4.608-2.304 3.168-3.888 8.352-1.44 5.184-1.44 12.53 0 6.912 1.152 11.66 1.152 4.608 3.168 7.488 2.016 2.736 4.752 4.032 2.88 1.152 6.192 1.152t6.048-1.008q2.88-1.152 4.464-3.024 0.144-0.288 0.288-0.864t0.144-1.152q0.144-1.296 0.144-2.88 0-1.728 0-4.032z"/><path d="m468.6 284.2q0.72 1.584 0.864 3.6 0.288 2.016 0.288 6.624v48.96q0 4.896-1.728 7.632-0.72 1.152-2.88 1.296t-8.208 0.288q0-5.472 0-11.66 0.144-6.336 0.144-12.96v-25.49q0-5.04-0.144-8.496 0-3.456-0.144-6.336 1.152-2.304 4.176-2.88 3.168-0.576 7.632-0.576zm-12.24-24.48q0-8.064 7.632-8.064 4.32 0 5.472 2.016 1.296 1.872 1.152 5.76-0.144 3.744-1.584 6.192t-5.904 2.448q-3.744 0-5.328-2.016-1.44-2.016-1.44-6.336z"/><path d="m498.5 338.7q-0.144 2.016 0.288 3.6 0.288 1.296 1.152 2.304t2.592 0.72q-0.144 1.584-0.144 3.168t0 2.16q-0.864 1.296-2.88 2.16-1.872 1.008-4.752 1.152-1.296 0-2.736-0.576-1.296-0.576-2.448-1.296-1.728-1.152-2.592-3.024-0.864-2.016-0.864-4.176v-74.45q0-5.328-0.144-9.072 0-3.888-0.144-7.2 1.152-2.448 4.176-3.024 3.024-0.72 7.488-0.72 0.72 2.16 0.864 5.04t0.144 8.352v74.88z"/><path d="m559.8 307.4q0 11.38-6.336 17.71-6.192 6.192-17.28 6.192-2.016 0-3.6-0.144-1.584-0.288-3.168-0.576-1.008 1.008-1.872 1.872-0.864 0.72-1.584 1.584-1.008 1.152-1.008 2.448t2.16 2.448q2.304 1.008 6.624 1.44 3.024 0.288 6.192 0.576 3.168 0.144 6.48 0.432 1.44 0.144 2.592 0.288 1.296 0 2.448 0.288 6.768 1.152 10.51 4.752 3.888 3.6 4.176 9.936 0 4.752-2.304 9.648-2.16 5.04-6.192 9.216-3.888 4.32-9.504 7.488t-12.24 4.608q-2.88 0.72-6.336 1.008-3.456 0.432-6.912 0.432-5.04 0-9.216-1.296-4.032-1.296-4.896-4.608-0.72-2.736 1.152-6.192 2.016-3.312 5.328-6.768t7.344-6.624 7.344-5.328q2.16 1.152 2.304 3.6 0.288 2.592-1.584 4.176t-3.744 3.312q-1.728 1.728-3.168 3.312-1.44 1.728-2.16 3.168-0.72 1.584-0.432 2.592 0.288 1.296 1.584 1.728 1.44 0.432 3.456 0.432 2.448 0 5.184-0.576 2.88-0.432 4.896-0.864 3.888-1.008 7.2-3.168 3.312-2.016 5.76-4.752 2.448-2.592 3.744-5.472 1.44-2.736 1.44-5.04 0-0.432-0.144-1.296 0-0.72-0.144-1.008-1.008-2.592-2.592-4.32-1.44-1.728-6.048-2.304-2.448-0.288-4.896-0.432t-5.04-0.288l-2.592-0.144q-4.896-0.432-7.92-1.152-1.728-0.432-3.024-0.864-4.752-1.584-7.344-4.032-2.448-2.592-2.592-5.76 0-1.152 1.584-3.024 2.016-2.016 4.32-4.176 2.448-2.304 4.32-4.032-4.608-2.88-7.056-7.92t-2.448-11.95q0-6.048 1.872-10.66 1.872-4.752 5.04-7.92 3.312-3.312 7.776-4.896 4.464-1.728 9.792-1.728 3.744 0 6.624 0.864 3.024 0.864 4.896 1.872 0.432 0.288 0.864 0.576 0.432 0.144 1.296-0.576 4.176-0.144 8.064-0.288 3.888-0.288 6.768-0.432 0.288 0.72 0.576 1.872 0.288 1.008 0.288 2.448 0 2.448-1.008 4.176-0.864 1.584-2.88 1.584-1.872 0-3.312 0-1.44-0.144-3.312-0.432 2.016 2.88 2.88 6.048 1.008 3.024 1.008 6.912zm-24.48-16.27q-5.04 0-8.064 4.032-2.88 3.888-2.16 12.1 0.72 7.2 3.744 11.38t9.072 4.176q5.904 0 8.208-4.608 2.448-4.608 1.728-12.24-0.72-7.056-3.888-10.94-3.024-3.888-8.64-3.888z"/><path d="m601.9 343.4q4.608 0 8.496-0.72 4.032-0.864 7.488-2.736 0.288 1.008 0.432 2.736 0.288 1.728 0.432 3.024-0.144 2.16-2.736 4.176t-5.616 2.736q-1.584 0.432-4.608 0.864-3.024 0.576-6.336 0.576-5.04 0-10.22-1.44-5.184-1.296-9.36-5.472-7.632-7.92-7.632-26.21 0-10.37 2.016-17.57 2.16-7.344 5.76-11.81 3.744-4.608 8.784-6.624 5.184-2.16 11.09-2.16 9.792 0 14.83 5.472t6.048 14.83q0.144 1.584 0.144 3.312 0.144 1.728 0.144 3.6 0 2.304-0.288 4.608-0.144 2.16-0.576 3.888-1.152 0.864-4.176 1.872t-5.904 1.44q-3.312 0.432-8.496 0.72-5.184 0.144-10.22 0.144-1.728 0-3.312 0-1.44 0-3.168-0.144 0 5.904 1.296 9.936t3.456 6.48q2.304 2.448 5.328 3.456 3.168 1.008 6.912 1.008zm-3.456-51.26q-0.864 0-1.296 0.144-4.32 0.72-7.92 5.76-3.456 5.04-4.032 15.55h5.472q4.176 0 8.208 0 4.032-0.144 6.048-0.432 1.008-0.144 1.728-0.288 0.864-0.144 1.584-0.576 0.72-1.872 0.72-4.752 0-0.864-0.144-1.584 0-0.864 0-1.584-0.576-6.048-3.024-9.072-2.448-3.168-7.344-3.168z"/><path d="m657.2 294.9q-7.056 0-11.38 4.608v45.94q0 1.872-0.288 3.312-0.144 1.296-1.008 2.448-0.72 0.432-1.584 0.72-0.72 0.288-2.016 0.432-1.152 0.144-3.024 0.144-1.872 0.144-4.752 0.144 0.144-5.904 0.144-12.82 0.144-6.912 0.144-15.41l0.144-24.34q0-3.456-0.576-6.048t-1.296-4.752q1.296-1.296 5.904-3.312 0.432-0.144 1.008-0.144 2.016 0 2.88 1.296 1.008 1.152 1.584 3.024 2.448-2.16 4.896-3.456 2.592-1.44 4.896-2.16 2.016-0.72 3.888-1.008 1.872-0.432 3.888-0.144 5.616 0.576 6.192 3.6 0 1.584-0.576 4.032-0.432 2.304-1.728 4.32-0.576 0.144-1.296 0.144t-1.728 0q-0.864-0.144-1.728-0.288-0.72-0.288-1.44-0.288-0.576 0-1.152 0z"/></g><g style="fill:#403c3e" aria-label="mike"><path d="m195.6 350.3q0 1.872-1.872 2.304-0.72 0.144-2.016 0.144-1.152 0-3.024 0h-5.904q0.288-5.472 0.288-12.1t0-14.83v-17.28q0-8.496-2.16-11.81-2.016-3.456-7.488-3.456-4.032 0-7.2 1.872-3.024 1.728-5.328 4.176v46.66q0 1.872-0.288 3.024t-1.152 2.304q-0.72 0.576-1.44 0.864t-2.016 0.432q-1.152 0.144-3.024 0.144-1.728 0-4.608 0 0.144-5.472 0.144-12.1 0-6.768 0-14.98v-25.78q0-3.456-0.576-6.048-0.432-2.592-1.152-4.752 0.864-1.152 5.76-3.312 0.432-0.144 1.008-0.144 2.016 0 3.024 1.296 1.008 1.152 1.44 3.024 2.592-2.16 5.04-3.456 2.592-1.44 4.896-2.16 4.32-1.44 9.072-1.44 0.576 0 1.152 0 0.72 0 1.44 0.144 4.896 0.288 7.776 2.16 3.024 1.872 4.896 5.04 2.592-2.16 5.184-3.6 2.736-1.44 5.184-2.16 4.32-1.44 8.784-1.44 0.72 0 1.44 0t1.44 0.144q4.752 0.432 7.776 2.304t4.752 5.04q1.872 3.168 2.448 7.632 0.72 4.464 0.72 9.792v24.19q0 5.472 0 10.22t0.288 8.64q-1.296 1.008-3.6 1.296-2.16 0.432-8.208 0.432-0.432-0.864-0.72-1.872-0.288-1.152-0.288-2.736v-39.46q0-8.496-2.16-11.81-2.016-3.456-7.488-3.456-3.744 0-6.912 1.872-3.024 1.728-5.328 4.176v50.83z"/><path d="m257.6 284.4q0.72 1.584 0.864 3.6 0.288 2.016 0.288 6.624v48.96q0 4.896-1.728 7.632-0.72 1.152-2.88 1.296t-8.208 0.288q0-5.472 0-11.66 0.144-6.336 0.144-12.96v-25.49q0-5.04-0.144-8.496 0-3.456-0.144-6.336 1.152-2.304 4.176-2.88 3.168-0.576 7.632-0.576zm-12.24-24.48q0-8.064 7.632-8.064 4.32 0 5.472 2.016 1.296 1.872 1.152 5.76-0.144 3.744-1.584 6.192t-5.904 2.448q-3.744 0-5.328-2.016-1.44-2.016-1.44-6.336z"/><path d="m274.8 352.8q0-1.872 0-5.76 0.144-3.888 0.144-8.208 0.144-4.32 0.144-8.208 0-4.032 0-6.048v-52.7q0-3.744-0.144-6.912 0-3.312-0.144-6.192l-0.144-4.032q1.152-2.592 3.888-3.456t7.056-0.864q0.864 1.44 1.296 3.744 0.432 2.16 0.432 7.632v25.92q4.032-3.312 8.496-4.608 4.464-1.44 9.36-1.44 3.6 0 5.904 1.296t3.6 3.312q1.44 2.016 2.016 4.464t0.576 4.752q0 6.192-2.448 10.8-2.304 4.464-5.472 7.632t-6.48 5.04q-3.168 1.728-4.896 2.304 2.16 1.44 6.048 5.76t8.208 9.504q4.32 5.04 8.352 10.08t6.48 7.92q1.152 0.864 0.288 1.584-0.864 0.864-2.448 1.44-2.448 0.72-5.184 0.72-2.16 0-3.744-0.72-1.44-0.72-3.888-2.592-0.864-0.864-2.304-2.592t-3.312-4.032-3.888-4.608q-2.016-2.448-3.888-4.608-0.72-0.72-2.016-2.016-1.152-1.44-2.592-2.88-1.296-1.44-2.592-2.736-1.152-1.296-1.728-1.872-0.288-0.288-1.152-1.008-0.72-0.72-1.296-1.152v20.88q0 1.728-0.432 2.592-0.288 0.864-1.584 1.296-1.152 0.432-3.744 0.432-2.448 0.144-6.768 0.144zm12.53-36q3.312-1.44 6.336-3.456 3.024-2.16 5.184-4.608 2.304-2.448 3.6-5.184 1.44-2.88 1.44-6.048 0-2.448-1.152-4.032-1.152-1.728-3.6-1.728t-5.76 2.16q-3.168 2.016-6.048 6.048z"/><path d="m358.2 343.6q4.608 0 8.496-0.72 4.032-0.864 7.488-2.736 0.288 1.008 0.432 2.736 0.288 1.728 0.432 3.024-0.144 2.16-2.736 4.176t-5.616 2.736q-1.584 0.432-4.608 0.864-3.024 0.576-6.336 0.576-5.04 0-10.22-1.44-5.184-1.296-9.36-5.472-7.632-7.92-7.632-26.21 0-10.37 2.016-17.57 2.16-7.344 5.76-11.81 3.744-4.608 8.784-6.624 5.184-2.16 11.09-2.16 9.792 0 14.83 5.472t6.048 14.83q0.144 1.584 0.144 3.312 0.144 1.728 0.144 3.6 0 2.304-0.288 4.608-0.144 2.16-0.576 3.888-1.152 0.864-4.176 1.872t-5.904 1.44q-3.312 0.432-8.496 0.72-5.184 0.144-10.22 0.144-1.728 0-3.312 0-1.44 0-3.168-0.144 0 5.904 1.296 9.936t3.456 6.48q2.304 2.448 5.328 3.456 3.168 1.008 6.912 1.008zm-3.456-51.26q-0.864 0-1.296 0.144-4.32 0.72-7.92 5.76-3.456 5.04-4.032 15.55h5.472q4.176 0 8.208 0 4.032-0.144 6.048-0.432 1.008-0.144 1.728-0.288 0.864-0.144 1.584-0.576 0.72-1.872 0.72-4.752 0-0.864-0.144-1.584 0-0.864 0-1.584-0.576-6.048-3.024-9.072-2.448-3.168-7.344-3.168z"/></g><g style="fill-opacity:.9412;fill:#33619f" aria-label="dilger"><path d="m440 338.7q-0.144 2.16 0.288 3.744 0.288 1.296 1.152 2.304t2.592 0.576q-0.144 1.584-0.144 3.168t0 2.16q-0.864 1.296-2.88 2.16-1.872 1.008-4.752 1.152-2.592 0.144-5.184-1.728-2.448-1.872-3.456-3.312-0.72 0.72-1.872 1.728-1.152 0.864-2.304 1.44-4.464 2.304-10.51 2.016-5.472-0.288-10.08-2.016-4.464-1.872-7.776-5.76t-5.184-10.08-1.872-15.41q0-9.936 2.592-17.14 2.592-7.344 6.912-12.24 4.032-4.464 8.928-6.48 5.04-2.16 10.22-2.16 3.744 0 6.624 0.72t4.608 1.872v-17.14q0-4.752-0.144-8.064 0-3.312-0.144-5.904 1.152-2.448 4.032-3.168 3.024-0.72 7.488-0.72 0.72 1.584 0.864 3.888 0.288 2.16 0.288 7.056v48.38q0 7.488-0.144 15.41-0.144 7.776-0.144 13.54zm-12.1-43.49q-3.168-2.736-9.216-2.736-3.168 0-6.336 1.44-3.024 1.44-5.472 4.608-2.304 3.168-3.888 8.352-1.44 5.184-1.44 12.53 0 6.912 1.152 11.66 1.152 4.608 3.168 7.488 2.016 2.736 4.752 4.032 2.88 1.152 6.192 1.152t6.048-1.008q2.88-1.152 4.464-3.024 0.144-0.288 0.288-0.864t0.144-1.152q0.144-1.296 0.144-2.88 0-1.728 0-4.032z"/><path d="m468.6 284.2q0.72 1.584 0.864 3.6 0.288 2.016 0.288 6.624v48.96q0 4.896-1.728 7.632-0.72 1.152-2.88 1.296t-8.208 0.288q0-5.472 0-11.66 0.144-6.336 0.144-12.96v-25.49q0-5.04-0.144-8.496 0-3.456-0.144-6.336 1.152-2.304 4.176-2.88 3.168-0.576 7.632-0.576zm-12.24-24.48q0-8.064 7.632-8.064 4.32 0 5.472 2.016 1.296 1.872 1.152 5.76-0.144 3.744-1.584 6.192t-5.904 2.448q-3.744 0-5.328-2.016-1.44-2.016-1.44-6.336z"/><path d="m498.5 338.7q-0.144 2.016 0.288 3.6 0.288 1.296 1.152 2.304t2.592 0.72q-0.144 1.584-0.144 3.168t0 2.16q-0.864 1.296-2.88 2.16-1.872 1.008-4.752 1.152-1.296 0-2.736-0.576-1.296-0.576-2.448-1.296-1.728-1.152-2.592-3.024-0.864-2.016-0.864-4.176v-74.45q0-5.328-0.144-9.072 0-3.888-0.144-7.2 1.152-2.448 4.176-3.024 3.024-0.72 7.488-0.72 0.72 2.16 0.864 5.04t0.144 8.352v74.88z"/><path d="m559.8 307.4q0 11.38-6.336 17.71-6.192 6.192-17.28 6.192-2.016 0-3.6-0.144-1.584-0.288-3.168-0.576-1.008 1.008-1.872 1.872-0.864 0.72-1.584 1.584-1.008 1.152-1.008 2.448t2.16 2.448q2.304 1.008 6.624 1.44 3.024 0.288 6.192 0.576 3.168 0.144 6.48 0.432 1.44 0.144 2.592 0.288 1.296 0 2.448 0.288 6.768 1.152 10.51 4.752 3.888 3.6 4.176 9.936 0 4.752-2.304 9.648-2.16 5.04-6.192 9.216-3.888 4.32-9.504 7.488t-12.24 4.608q-2.88 0.72-6.336 1.008-3.456 0.432-6.912 0.432-5.04 0-9.216-1.296-4.032-1.296-4.896-4.608-0.72-2.736 1.152-6.192 2.016-3.312 5.328-6.768t7.344-6.624 7.344-5.328q2.16 1.152 2.304 3.6 0.288 2.592-1.584 4.176t-3.744 3.312q-1.728 1.728-3.168 3.312-1.44 1.728-2.16 3.168-0.72 1.584-0.432 2.592 0.288 1.296 1.584 1.728 1.44 0.432 3.456 0.432 2.448 0 5.184-0.576 2.88-0.432 4.896-0.864 3.888-1.008 7.2-3.168 3.312-2.016 5.76-4.752 2.448-2.592 3.744-5.472 1.44-2.736 1.44-5.04 0-0.432-0.144-1.296 0-0.72-0.144-1.008-1.008-2.592-2.592-4.32-1.44-1.728-6.048-2.304-2.448-0.288-4.896-0.432t-5.04-0.288l-2.592-0.144q-4.896-0.432-7.92-1.152-1.728-0.432-3.024-0.864-4.752-1.584-7.344-4.032-2.448-2.592-2.592-5.76 0-1.152 1.584-3.024 2.016-2.016 4.32-4.176 2.448-2.304 4.32-4.032-4.608-2.88-7.056-7.92t-2.448-11.95q0-6.048 1.872-10.66 1.872-4.752 5.04-7.92 3.312-3.312 7.776-4.896 4.464-1.728 9.792-1.728 3.744 0 6.624 0.864 3.024 0.864 4.896 1.872 0.432 0.288 0.864 0.576 0.432 0.144 1.296-0.576 4.176-0.144 8.064-0.288 3.888-0.288 6.768-0.432 0.288 0.72 0.576 1.872 0.288 1.008 0.288 2.448 0 2.448-1.008 4.176-0.864 1.584-2.88 1.584-1.872 0-3.312 0-1.44-0.144-3.312-0.432 2.016 2.88 2.88 6.048 1.008 3.024 1.008 6.912zm-24.48-16.27q-5.04 0-8.064 4.032-2.88 3.888-2.16 12.1 0.72 7.2 3.744 11.38t9.072 4.176q5.904 0 8.208-4.608 2.448-4.608 1.728-12.24-0.72-7.056-3.888-10.94-3.024-3.888-8.64-3.888z"/><path d="m601.9 343.4q4.608 0 8.496-0.72 4.032-0.864 7.488-2.736 0.288 1.008 0.432 2.736 0.288 1.728 0.432 3.024-0.144 2.16-2.736 4.176t-5.616 2.736q-1.584 0.432-4.608 0.864-3.024 0.576-6.336 0.576-5.04 0-10.22-1.44-5.184-1.296-9.36-5.472-7.632-7.92-7.632-26.21 0-10.37 2.016-17.57 2.16-7.344 5.76-11.81 3.744-4.608 8.784-6.624 5.184-2.16 11.09-2.16 9.792 0 14.83 5.472t6.048 14.83q0.144 1.584 0.144 3.312 0.144 1.728 0.144 3.6 0 2.304-0.288 4.608-0.144 2.16-0.576 3.888-1.152 0.864-4.176 1.872t-5.904 1.44q-3.312 0.432-8.496 0.72-5.184 0.144-10.22 0.144-1.728 0-3.312 0-1.44 0-3.168-0.144 0 5.904 1.296 9.936t3.456 6.48q2.304 2.448 5.328 3.456 3.168 1.008 6.912 1.008zm-3.456-51.26q-0.864 0-1.296 0.144-4.32 0.72-7.92 5.76-3.456 5.04-4.032 15.55h5.472q4.176 0 8.208 0 4.032-0.144 6.048-0.432 1.008-0.144 1.728-0.288 0.864-0.144 1.584-0.576 0.72-1.872 0.72-4.752 0-0.864-0.144-1.584 0-0.864 0-1.584-0.576-6.048-3.024-9.072-2.448-3.168-7.344-3.168z"/><path d="m657.2 294.9q-7.056 0-11.38 4.608v45.94q0 1.872-0.288 3.312-0.144 1.296-1.008 2.448-0.72 0.432-1.584 0.72-0.72 0.288-2.016 0.432-1.152 0.144-3.024 0.144-1.872 0.144-4.752 0.144 0.144-5.904 0.144-12.82 0.144-6.912 0.144-15.41l0.144-24.34q0-3.456-0.576-6.048t-1.296-4.752q1.296-1.296 5.904-3.312 0.432-0.144 1.008-0.144 2.016 0 2.88 1.296 1.008 1.152 1.584 3.024 2.448-2.16 4.896-3.456 2.592-1.44 4.896-2.16 2.016-0.72 3.888-1.008 1.872-0.432 3.888-0.144 5.616 0.576 6.192 3.6 0 1.584-0.576 4.032-0.432 2.304-1.728 4.32-0.576 0.144-1.296 0.144t-1.728 0q-0.864-0.144-1.728-0.288-0.72-0.288-1.44-0.288-0.576 0-1.152 0z"/></g><text transform="scale(1.048 .9541)" x="140.59662" y="408.44141" style="fill:#c3c65d;font-family:Arial;font-weight:normal;line-height:0%" xml:space="preserve"><tspan x="140.59662" y="408.44141" style="font-family:Arial;font-size:38.33px;font-stretch:condensed;font-weight:normal;line-height:1">broadcaster &amp; naturalist </tspan></text></g></g></svg>
